<svg xmlns="http://www.w3.org/2000/svg" id="Layer_1" data-name="Layer 1" viewBox="0 0 893.25 276.84"><defs><style>      .cls-1 {        fill: #ffc83f;      }      .cls-2 {        fill: #fff;      }      .cls-3 {        fill: #273b87;      }    </style></defs><path class="cls-3" d="M893.24,276.84H0V123.95C0,55.5,55.49,0,123.95,0h769.3v276.84h-.01Z"></path><path class="cls-1" d="M226.74,59.12h-84.23c-44.69,0-81.27,36.57-81.27,81.26v84.25h55v-84.25c0-14.44,11.83-26.25,26.27-26.25h84.23v-55.01Z"></path><g><path class="cls-2" d="M255.17,62.57h25.32c14.77,0,23.23,8.37,23.23,21.14,0,8.89-4.1,15.3-11.51,18.48l13.82,25.32h-14.73l-12.38-23.19h-10.46v23.19h-13.29V62.57h0ZM278.05,93.56c8.11,0,11.94-3.36,11.94-9.85s-3.84-10.15-11.99-10.15h-9.54v20h9.59Z"></path><path class="cls-2" d="M312.84,65.71c0-3.7,3.23-6.71,7.19-6.71s7.19,3.01,7.19,6.71-3.27,6.71-7.19,6.71-7.19-2.96-7.19-6.71M313.49,78.79h13.08v48.73h-13.08v-48.73h0Z"></path><path class="cls-2" d="M333.46,78.79h13.9l8.19,25.28c1.35,4.36,2.44,8.76,3.49,13.29,1-4.53,2.05-8.89,3.4-13.29l8.11-25.28h13.73l-18,48.73h-14.86l-17.96-48.73h0Z"></path><path class="cls-2" d="M390.57,65.71c0-3.7,3.23-6.71,7.19-6.71s7.19,3.01,7.19,6.71-3.27,6.71-7.19,6.71-7.19-2.96-7.19-6.71M391.22,78.79h13.08v48.73h-13.08v-48.73h0Z"></path><path class="cls-2" d="M413.37,103.41c0-15.04,9.15-25.23,23.4-25.23,12.73,0,22.88,8.06,22.88,24.71v3.66h-33.34c.31,7.98,4.75,12.07,11.33,12.07,4.58,0,8.02-2,9.41-5.75l11.85,2.22c-2.4,8.11-10.15,13.38-21.49,13.38-14.9,0-24.06-9.68-24.06-25.06M447.06,98.35c-.65-6.36-4.1-10.33-10.15-10.33s-9.98,4.31-10.5,10.33h20.66,0Z"></path><path class="cls-2" d="M468.6,78.79h12.64v8.5h.52c1.79-6.01,6.28-9.15,11.77-9.15,1.35,0,3.05.18,4.23.44v11.68c-1.18-.35-3.75-.65-5.67-.65-6.01,0-10.42,4.14-10.42,10.2v27.72h-13.08v-48.73h0Z"></path><path class="cls-2" d="M501.12,113.87c0-10.9,8.8-14.03,18.39-14.95,8.37-.83,11.81-1.18,11.81-4.36v-.22c0-4.14-2.75-6.49-7.63-6.49s-8.15,2.48-9.2,5.62l-11.99-2c2.48-8.45,10.33-13.29,21.22-13.29s20.66,4.71,20.66,16.52v32.82h-12.38v-6.76h-.43c-2.35,4.53-7.06,7.71-14.25,7.71-9.28,0-16.21-4.97-16.21-14.6M531.41,110.08v-5.27c-1.61,1.13-6.8,1.83-9.68,2.22-4.84.7-8.06,2.57-8.06,6.49s3.05,5.75,7.37,5.75c6.1,0,10.37-4.05,10.37-9.2"></path><rect class="cls-2" x="255.17" y="141.47" width="13.29" height="64.94"></rect><path class="cls-2" d="M293,206.41h-13.08v-48.73h12.33l.18,10.07c2.75-6.8,7.67-10.68,15.17-10.68,10.11,0,16.74,6.93,16.74,18.35v30.99h-13.08v-28.72c0-6.06-3.31-9.68-8.8-9.68s-9.46,3.75-9.46,10.2v28.2h0Z"></path><path class="cls-2" d="M362.62,167.66h-10.2v38.74h-13.03v-38.74h-8.59v-9.98h8.59v-3.75c0-10.37,6.8-15.52,15.82-15.52,4.1,0,7.76.87,9.37,1.35l-2.35,9.85c-1.09-.31-2.66-.65-4.36-.65-3.97,0-5.45,2-5.45,5.4v3.31h10.2v9.98h0Z"></path><path class="cls-2" d="M371.04,157.68h12.64v8.5h.52c1.79-6.01,6.28-9.15,11.77-9.15,1.35,0,3.05.18,4.23.44v11.68c-1.18-.35-3.75-.65-5.67-.65-6.01,0-10.42,4.14-10.42,10.2v27.72h-13.08v-48.73h.01Z"></path><path class="cls-2" d="M403.56,192.77c0-10.9,8.8-14.03,18.39-14.95,8.37-.83,11.81-1.18,11.81-4.36v-.22c0-4.14-2.75-6.49-7.63-6.49s-8.15,2.48-9.2,5.62l-11.99-2c2.48-8.45,10.33-13.29,21.22-13.29s20.66,4.71,20.66,16.52v32.82h-12.38v-6.76h-.43c-2.35,4.53-7.06,7.71-14.25,7.71-9.28,0-16.21-4.97-16.21-14.6M433.85,188.98v-5.27c-1.61,1.13-6.8,1.83-9.68,2.22-4.84.7-8.06,2.57-8.06,6.49s3.05,5.75,7.37,5.75c6.1,0,10.37-4.05,10.37-9.2"></path><path class="cls-2" d="M458,157.68h12.86v8.19h.61c1.79-3.88,5.62-8.8,13.9-8.8,10.81,0,19.74,8.41,19.74,25.06s-8.59,25.1-19.83,25.1c-7.98,0-11.99-4.71-13.82-8.63h-.39v26.02h-13.08v-66.94h.01ZM491.74,182.09c0-8.54-3.62-14.56-10.46-14.56s-10.5,5.71-10.5,14.56,3.84,14.64,10.5,14.64,10.46-6.06,10.46-14.64"></path><path class="cls-2" d="M514.28,157.68h12.64v8.5h.52c1.79-6.01,6.28-9.15,11.77-9.15,1.35,0,3.05.18,4.23.44v11.68c-1.18-.35-3.75-.65-5.67-.65-6.01,0-10.42,4.14-10.42,10.2v27.72h-13.08v-48.73h0Z"></path><path class="cls-2" d="M546.41,182.27c0-15.08,9.15-25.19,23.84-25.19s23.84,10.11,23.84,25.19-9.2,25.1-23.84,25.1-23.84-10.11-23.84-25.1M580.8,182.22c0-8.59-3.57-14.86-10.55-14.86s-10.5,6.23-10.5,14.86,3.53,14.86,10.5,14.86,10.55-6.36,10.55-14.86"></path><path class="cls-2" d="M616.29,157.68v51.21c0,11.2-6.89,15.73-18.17,15.73h-2.66v-10.29h1.74c4.36,0,5.97-1.87,5.97-5.62v-51.03h13.12ZM602.56,144.61c0-3.7,3.27-6.71,7.19-6.71s7.19,3.01,7.19,6.71-3.27,6.71-7.19,6.71-7.19-2.96-7.19-6.71"></path><path class="cls-2" d="M625.36,182.31c0-15.04,9.15-25.23,23.4-25.23,12.73,0,22.88,8.06,22.88,24.71v3.66h-33.34c.31,7.98,4.75,12.07,11.33,12.07,4.58,0,8.02-2,9.41-5.75l11.85,2.22c-2.4,8.11-10.15,13.38-21.49,13.38-14.9,0-24.06-9.68-24.06-25.06M659.05,177.25c-.65-6.36-4.1-10.33-10.15-10.33s-9.98,4.31-10.5,10.33h20.66,0Z"></path><path class="cls-2" d="M678.54,182.26c0-15.08,9.15-25.19,23.84-25.19,11.55,0,19.83,6.19,21.66,16.21l-12.16,2.27c-1.09-5.06-4.32-8.19-9.37-8.19-6.97,0-10.63,6.06-10.63,14.86s3.66,14.86,10.63,14.86c5.06,0,8.41-3.23,9.46-8.5l12.16,2.22c-1.83,10.24-10.07,16.56-21.75,16.56-14.69,0-23.84-10.11-23.84-25.1"></path><path class="cls-2" d="M757.31,167.66h-9.11v24.49c0,3.09,1.26,4.53,4.45,4.53,1,0,3.18-.31,4.14-.57l1.87,9.81c-2.92.87-5.84,1.18-8.45,1.18-9.76,0-15.08-4.88-15.08-13.82v-25.63h-6.71v-9.98h6.71v-11.59h13.08v11.59h9.11v9.98h-.01Z"></path><path class="cls-2" d="M762.98,193.07l12.16-2.09c1.26,4.58,4.4,6.8,9.76,6.8,4.97,0,8.06-2.09,8.06-5.01,0-2.57-2-4.14-6.28-5.01l-8.41-1.74c-9.41-1.92-14.03-6.54-14.03-13.82,0-9.37,8.15-15.12,20.48-15.12,11.55,0,18.48,5.06,20.31,12.99l-11.59,2.05c-1.05-3.31-3.79-5.67-8.54-5.67-4.27,0-7.58,2-7.58,4.93,0,2.44,1.66,4.14,6.28,5.1l8.76,1.74c9.41,1.92,13.95,6.23,13.95,13.16,0,9.59-9.02,16-21.79,16-11.77,0-19.83-5.23-21.53-14.3"></path></g></svg>